<svg id="图层_1" data-name="图层 1" xmlns="http://www.w3.org/2000/svg" viewBox="0 0 200 200"><defs><style>.cls-1{fill:#4783c4;}.cls-2{fill:#fff;}</style></defs><rect class="cls-1" width="200" height="200" rx="15.43"/><path class="cls-2" d="M86.72,50.18,77.41,139l-1.16,10.82H22.12L20.37,139H66l3.26-31.43h-46l4.89-46.45,1.16-10.94ZM35.85,96.62H70.43l3.72-35.5H39.58Z"/><path class="cls-2" d="M151.83,120.93h9.71l-3.06,28.89H154l2.6-24.64h-5.22"/><path class="cls-2" d="M167.57,120.93h4.48L169,149.82h-4.48Zm.6-5.76.46-4.48h4.48l-.46,4.48Z"/><path class="cls-2" d="M181.47,145.57h4.16l-1.55,4.25h-7.55l4.12-39.13h4.48Z"/><polygon class="cls-2" points="92.89 139 94.64 149.82 141.79 149.82 142.92 139 92.89 139"/><polygon class="cls-2" points="140.04 125.18 137.48 149.82 148.77 149.82 149.93 139 151.38 125.18 140.04 125.18"/><path class="cls-2" d="M140.4,120.93h11.43l7.42-70.75H101.86l-1.17,10.94L95.8,107.57h46Zm-32-24.31,3.72-35.5h34.58L143,96.62Z"/></svg>